# Blender 3.6.5
# www.blender.org
o Cube
v -1.000000 -1.000000 1.000000
v -1.000000 1.000000 1.000000
v -1.000000 -1.000000 -1.000000
v -1.000000 1.000000 -1.000000
v 1.000000 -1.000000 1.000000
v 1.000000 1.000000 1.000000
v 1.000000 -1.000000 -1.000000
v 0.808158 1.165095 -2.075643
v -1.484513 0.515487 -2.789713
v -1.484513 -1.484513 -2.789713
v 0.515487 -1.484513 -2.789713
v 0.323645 0.680583 -3.865356
v 0.124008 2.294065 1.588612
v 2.124008 2.294065 1.588612
v -3.365772 3.035492 5.473995
v -1.365772 3.035492 5.473995
vn -1.0000 -0.0000 -0.0000
vn 0.9671 -0.0391 -0.2512
vn 1.0000 -0.0000 -0.0000
vn -0.0000 -0.0000 1.0000
vn -0.0000 -1.0000 -0.0000
vn -0.0571 0.9967 0.0571
vn -0.0000 -0.0000 -1.0000
vn -0.0000 -0.9653 0.2613
vn -0.2080 0.9569 -0.2027
vn -0.9653 -0.0000 0.2613
vn -0.0000 0.4140 -0.9103
vn -0.0000 -0.7426 0.6698
vn -0.8840 -0.0000 -0.4675
vn 0.4815 -0.6734 0.5610
vn -0.0000 0.9823 -0.1874
vn -0.4815 0.6734 -0.5610
vn 0.9965 0.0590 -0.0590
vn -0.0000 1.0000 -0.0000
vn -0.4317 -0.4317 -0.7920
vt 0.980291 0.455883
vt 0.843220 0.631178
vt 0.823511 0.475766
vt 0.623172 0.695037
vt 0.823510 0.780032
vt 0.642953 0.844120
vt 0.803729 0.630949
vt 0.666731 0.455883
vt 0.823510 0.475756
vt 0.359198 0.447357
vt 0.542713 0.492432
vt 0.388604 0.523608
vt 0.407603 0.658475
vt 0.561712 0.627299
vt 0.067543 0.557388
vt 0.247392 0.435526
vt 0.194194 0.665523
vt 0.521558 0.943671
vt 0.359198 0.790082
vt 0.501198 0.802583
vt 0.469062 0.790082
vt 0.000000 0.692834
vt 0.980291 0.760190
vt 0.823511 0.780073
vt 0.205856 0.360488
vt 0.359198 0.391486
vt 0.469062 0.031177
vt 0.623172 -0.000000
vt 0.623172 0.455883
vt 0.623172 0.000000
vt 0.736114 0.345341
vt 0.861910 0.430437
vt 0.736114 0.389688
vt 0.861910 -0.000000
vt 0.153342 0.030998
vt 0.000000 -0.000000
vt 0.094050 0.404528
vt 1.000000 0.611295
vt 0.513307 0.416180
vt 0.359198 0.981714
vt 0.623172 0.758905
vt 0.126651 0.800969
s 0
f 2/1/1 3/2/1 1/3/1
f 8/4/2 11/5/2 12/6/2
f 7/7/3 6/8/3 5/9/3
f 6/10/4 1/11/4 5/12/4
f 7/13/5 1/11/5 3/14/5
f 4/15/6 6/16/6 8/17/6
f 9/18/7 11/19/7 10/20/7
f 3/14/8 11/21/8 7/13/8
f 8/17/9 9/22/9 4/15/9
f 3/2/10 9/23/10 10/24/10
f 6/16/11 13/25/11 14/26/11
f 1/11/12 16/27/12 15/28/12
f 5/29/13 16/30/13 6/31/13
f 6/32/14 14/33/14 16/34/14
f 16/35/15 14/26/15 15/36/15
f 14/26/15 13/25/15 15/36/15
f 13/25/16 2/37/16 15/36/16
f 2/1/1 4/38/1 3/2/1
f 8/4/2 7/7/2 11/5/2
f 7/7/17 8/4/17 6/8/17
f 6/10/4 2/39/4 1/11/4
f 7/13/5 5/12/5 1/11/5
f 4/15/18 2/37/18 6/16/18
f 9/18/19 12/40/19 11/19/19
f 3/14/8 10/41/8 11/21/8
f 8/17/9 12/42/9 9/22/9
f 3/2/10 4/38/10 9/23/10
f 6/16/11 2/37/11 13/25/11
f 1/11/12 5/12/12 16/27/12
